<svg width="28" height="23" viewBox="0 0 28 23" fill="none" xmlns="http://www.w3.org/2000/svg">
<path d="M26.4985 5.2565C26.1703 4.86268 25.7595 4.54594 25.2951 4.32878C24.8308 4.11163 24.3243 3.99937 23.8117 4H4.949L4.9 3.5905C4.79972 2.73932 4.39062 1.95452 3.75024 1.38489C3.10986 0.81526 2.28273 0.500399 1.42567 0.5L1.16667 0.5C0.857247 0.5 0.560501 0.622916 0.341709 0.841709C0.122916 1.0605 0 1.35725 0 1.66667C0 1.97609 0.122916 2.27283 0.341709 2.49162C0.560501 2.71042 0.857247 2.83333 1.16667 2.83333H1.42567C1.71142 2.83337 1.98723 2.93828 2.20077 3.12817C2.41431 3.31805 2.55073 3.57971 2.58417 3.8635L4.1895 17.5135C4.35616 18.9331 5.03822 20.2421 6.10623 21.192C7.17423 22.1419 8.55383 22.6667 9.98317 22.6667H22.1667C22.4761 22.6667 22.7728 22.5438 22.9916 22.325C23.2104 22.1062 23.3333 21.8094 23.3333 21.5C23.3333 21.1906 23.2104 20.8938 22.9916 20.675C22.7728 20.4562 22.4761 20.3333 22.1667 20.3333H9.98317C9.26107 20.3313 8.55727 20.106 7.96826 19.6882C7.37925 19.2705 6.93387 18.6808 6.69317 18H20.5998C21.9675 18.0001 23.2917 17.5196 24.3411 16.6425C25.3905 15.7654 26.0984 14.5475 26.341 13.2015L27.2568 8.12183C27.3483 7.61784 27.3277 7.09991 27.1967 6.60474C27.0656 6.10958 26.8273 5.64929 26.4985 5.2565ZM24.9667 7.70767L24.0497 12.7873C23.904 13.5958 23.4785 14.3273 22.8478 14.8537C22.2171 15.3801 21.4214 15.6679 20.5998 15.6667H6.32217L5.22433 6.33333H23.8117C23.9831 6.33231 24.1526 6.36906 24.3081 6.44096C24.4637 6.51287 24.6015 6.61817 24.7118 6.74938C24.822 6.88058 24.902 7.03447 24.9461 7.20009C24.9902 7.36572 24.9972 7.53902 24.9667 7.70767Z" fill="black"/>
</svg>
