<svg width="24" height="24" viewBox="0 0 24 24" fill="none" xmlns="http://www.w3.org/2000/svg">
<path fill-rule="evenodd" clip-rule="evenodd" d="M11.9617 0.36377C14.1251 0.388457 16.0796 0.920165 17.825 1.95889C19.5497 2.97688 20.9843 4.42031 21.9918 6.15114C23.0242 7.90712 23.5527 9.87341 23.5773 12.05C23.516 15.0281 22.5767 17.5718 20.7593 19.6808C18.942 21.7899 16.6144 23.0948 14.2049 23.595V15.2452H16.4829L16.9981 11.964H13.5487V9.81485C13.5295 9.36932 13.6704 8.93164 13.9459 8.58095C14.2218 8.2293 14.7075 8.04448 15.4032 8.02648H17.4862V5.15218C17.4563 5.14256 17.1727 5.10454 16.6354 5.0381C16.0261 4.96681 15.4133 4.92873 14.7998 4.92403C13.4113 4.93043 12.3131 5.32211 11.5054 6.09906C10.6976 6.87579 10.2849 7.99956 10.2675 9.47035V11.964H7.64245V15.2452H10.2675V23.595C7.30894 23.0948 4.98136 21.7899 3.16402 19.6808C1.34667 17.5718 0.407391 15.0281 0.346069 12.05C0.370604 9.87331 0.899097 7.90702 1.93155 6.15114C2.93902 4.42031 4.37369 2.97689 6.09835 1.95889C7.84377 0.920365 9.79821 0.388657 11.9617 0.36377Z" fill="#FF8800"/>
</svg>
