<svg width="24" height="24" viewBox="0 0 24 24" fill="none" xmlns="http://www.w3.org/2000/svg">
<g clip-path="url(#clip0_0_182)">
<path d="M12 14.4609C13.3591 14.4609 14.4609 13.3591 14.4609 12C14.4609 10.6409 13.3591 9.53906 12 9.53906C10.6409 9.53906 9.53906 10.6409 9.53906 12C9.53906 13.3591 10.6409 14.4609 12 14.4609Z" fill="#FF8800"/>
<path d="M12 0.28125C5.52792 0.28125 0.28125 5.52792 0.28125 12C0.28125 18.4721 5.52792 23.7188 12 23.7188C18.4721 23.7188 23.7188 18.4721 23.7188 12C23.7188 5.52792 18.4721 0.28125 12 0.28125ZM19.2402 14.9784C19.184 16.0926 18.8709 17.1912 18.059 17.9945C17.2392 18.8055 16.1353 19.1076 15.0105 19.1633H8.98959C7.86459 19.1076 6.76087 18.8056 5.94108 17.9945C5.12911 17.1912 4.81608 16.0926 4.75983 14.9784V9.02156C4.81608 7.90744 5.12916 6.80878 5.94108 6.00544C6.76087 5.1945 7.86473 4.89234 8.98959 4.8367H15.0104C16.1354 4.89234 17.2391 5.19436 18.0589 6.00544C18.8709 6.80878 19.1839 7.90744 19.2402 9.02156L19.2402 14.9784Z" fill="#FF8800"/>
<path d="M14.9344 6.19398C13.4678 6.15376 10.5325 6.15376 9.066 6.19398C8.30282 6.21494 7.43765 6.40492 6.8939 6.9857C6.32887 7.5894 6.11536 8.31878 6.0937 9.13473C6.05564 10.5669 6.0937 14.8653 6.0937 14.8653C6.1185 15.6812 6.32887 16.4106 6.8939 17.0143C7.43765 17.5953 8.30282 17.7851 9.066 17.806C10.5325 17.8463 13.4678 17.8463 14.9344 17.806C15.6975 17.7851 16.5627 17.5951 17.1065 17.0143C17.6715 16.4106 17.885 15.6812 17.9067 14.8653V9.13473C17.885 8.31878 17.6715 7.5894 17.1065 6.9857C16.5625 6.40473 15.6974 6.21494 14.9344 6.19398ZM12 15.8145C11.2456 15.8145 10.5081 15.5908 9.8808 15.1716C9.25352 14.7525 8.76461 14.1567 8.4759 13.4597C8.18719 12.7627 8.11166 11.9958 8.25884 11.2559C8.40602 10.5159 8.76931 9.83625 9.30277 9.30279C9.83623 8.76933 10.5159 8.40604 11.2558 8.25885C11.9958 8.11167 12.7627 8.18721 13.4597 8.47592C14.1567 8.76463 14.7525 9.25353 15.1716 9.88082C15.5907 10.5081 15.8144 11.2456 15.8144 12C15.8144 13.0117 15.4126 13.9819 14.6972 14.6972C13.9819 15.4126 13.0117 15.8145 12 15.8145ZM15.8307 8.97292C15.6798 8.97288 15.5323 8.92811 15.4069 8.84426C15.2814 8.76041 15.1837 8.64125 15.126 8.50185C15.0683 8.36244 15.0532 8.20906 15.0826 8.06108C15.1121 7.91311 15.1848 7.77719 15.2915 7.67052C15.3982 7.56384 15.5341 7.4912 15.6821 7.46178C15.8301 7.43236 15.9835 7.44748 16.1228 7.50523C16.2622 7.56297 16.3814 7.66076 16.4652 7.78621C16.549 7.91166 16.5937 8.05915 16.5937 8.21003C16.5937 8.31023 16.574 8.40945 16.5357 8.50202C16.4973 8.59459 16.4411 8.6787 16.3702 8.74954C16.2994 8.82038 16.2153 8.87657 16.1227 8.9149C16.0301 8.95323 15.9309 8.97294 15.8307 8.97292Z" fill="#FF8800"/>
</g>
<defs>
<clipPath id="clip0_0_182">
<rect width="24" height="24" fill="white"/>
</clipPath>
</defs>
</svg>
