<svg width="28" height="29" viewBox="0 0 28 29" fill="none" xmlns="http://www.w3.org/2000/svg">
<path d="M27.6582 26.5085L20.6943 19.5447C22.5921 17.2237 23.5251 14.2621 23.3005 11.2725C23.0759 8.28286 21.7107 5.49394 19.4875 3.4826C17.2643 1.47125 14.353 0.391364 11.3559 0.466301C8.3588 0.541238 5.50514 1.76527 3.38521 3.88521C1.26527 6.00514 0.0412383 8.8588 -0.0336988 11.8559C-0.108636 14.853 0.971252 17.7643 2.9826 19.9875C4.99394 22.2107 7.78286 23.5759 10.7725 23.8005C13.7621 24.0251 16.7237 23.0921 19.0447 21.1943L26.0085 28.1582C26.2285 28.3707 26.5232 28.4883 26.8291 28.4856C27.135 28.483 27.4276 28.3603 27.6439 28.1439C27.8603 27.9276 27.983 27.635 27.9856 27.3291C27.9883 27.0232 27.8707 26.7285 27.6582 26.5085ZM11.6667 21.5C9.8207 21.5 8.01619 20.9526 6.48133 19.927C4.94648 18.9015 3.7502 17.4438 3.04378 15.7384C2.33736 14.0329 2.15253 12.1563 2.51266 10.3458C2.87279 8.53532 3.7617 6.87228 5.06699 5.56699C6.37228 4.2617 8.03532 3.37279 9.84581 3.01266C11.6563 2.65253 13.5329 2.83736 15.2384 3.54378C16.9438 4.2502 18.4015 5.44648 19.427 6.98133C20.4526 8.51619 21 10.3207 21 12.1667C20.9972 14.6412 20.013 17.0135 18.2633 18.7633C16.5135 20.513 14.1412 21.4972 11.6667 21.5Z" fill="black"/>
</svg>
